<?xml version="1.0" encoding="UTF-8"?>
<!DOCTYPE svg PUBLIC "-//W3C//DTD SVG 1.1//EN" "http://www.w3.org/Graphics/SVG/1.1/DTD/svg11.dtd">
<svg xmlns="http://www.w3.org/2000/svg" version="1.1" width="720px" height="720px" style="shape-rendering:geometricPrecision; text-rendering:geometricPrecision; image-rendering:optimizeQuality; fill-rule:evenodd; clip-rule:evenodd" xmlns:xlink="http://www.w3.org/1999/xlink">
<g><path style="opacity:1" fill="#7725e3" d="M -0.5,-0.5 C 239.5,-0.5 479.5,-0.5 719.5,-0.5C 719.5,239.5 719.5,479.5 719.5,719.5C 479.5,719.5 239.5,719.5 -0.5,719.5C -0.5,479.5 -0.5,239.5 -0.5,-0.5 Z"/></g>
<g><path style="opacity:1" fill="#fefffe" d="M 159.5,255.5 C 186.167,255.5 212.833,255.5 239.5,255.5C 239.5,260.833 239.5,266.167 239.5,271.5C 244.833,271.5 250.167,271.5 255.5,271.5C 255.5,276.833 255.5,282.167 255.5,287.5C 260.833,287.5 266.167,287.5 271.5,287.5C 271.5,308.833 271.5,330.167 271.5,351.5C 260.833,351.5 250.167,351.5 239.5,351.5C 239.5,335.5 239.5,319.5 239.5,303.5C 234.167,303.5 228.833,303.5 223.5,303.5C 223.5,298.167 223.5,292.833 223.5,287.5C 207.5,287.5 191.5,287.5 175.5,287.5C 175.5,292.833 175.5,298.167 175.5,303.5C 170.167,303.5 164.833,303.5 159.5,303.5C 159.5,319.5 159.5,335.5 159.5,351.5C 148.833,351.5 138.167,351.5 127.5,351.5C 127.5,330.167 127.5,308.833 127.5,287.5C 132.833,287.5 138.167,287.5 143.5,287.5C 143.5,282.167 143.5,276.833 143.5,271.5C 148.833,271.5 154.167,271.5 159.5,271.5C 159.5,266.167 159.5,260.833 159.5,255.5 Z"/></g>
<g><path style="opacity:1" fill="#fefffe" d="M 319.5,255.5 C 346.167,255.5 372.833,255.5 399.5,255.5C 399.5,260.833 399.5,266.167 399.5,271.5C 404.833,271.5 410.167,271.5 415.5,271.5C 415.5,276.833 415.5,282.167 415.5,287.5C 420.833,287.5 426.167,287.5 431.5,287.5C 431.5,298.167 431.5,308.833 431.5,319.5C 420.833,319.5 410.167,319.5 399.5,319.5C 399.5,314.167 399.5,308.833 399.5,303.5C 394.167,303.5 388.833,303.5 383.5,303.5C 383.5,298.167 383.5,292.833 383.5,287.5C 367.5,287.5 351.5,287.5 335.5,287.5C 335.5,292.833 335.5,298.167 335.5,303.5C 330.167,303.5 324.833,303.5 319.5,303.5C 319.5,314.167 319.5,324.833 319.5,335.5C 330.167,335.5 340.833,335.5 351.5,335.5C 351.5,340.833 351.5,346.167 351.5,351.5C 367.5,351.5 383.5,351.5 399.5,351.5C 399.5,356.833 399.5,362.167 399.5,367.5C 410.167,367.5 420.833,367.5 431.5,367.5C 431.5,388.833 431.5,410.167 431.5,431.5C 426.167,431.5 420.833,431.5 415.5,431.5C 415.5,436.833 415.5,442.167 415.5,447.5C 410.167,447.5 404.833,447.5 399.5,447.5C 399.5,452.833 399.5,458.167 399.5,463.5C 372.833,463.5 346.167,463.5 319.5,463.5C 319.5,458.167 319.5,452.833 319.5,447.5C 314.167,447.5 308.833,447.5 303.5,447.5C 303.5,442.167 303.5,436.833 303.5,431.5C 298.167,431.5 292.833,431.5 287.5,431.5C 287.5,420.833 287.5,410.167 287.5,399.5C 298.167,399.5 308.833,399.5 319.5,399.5C 319.5,404.833 319.5,410.167 319.5,415.5C 324.833,415.5 330.167,415.5 335.5,415.5C 335.5,420.833 335.5,426.167 335.5,431.5C 351.5,431.5 367.5,431.5 383.5,431.5C 383.5,426.167 383.5,420.833 383.5,415.5C 388.833,415.5 394.167,415.5 399.5,415.5C 399.5,404.833 399.5,394.167 399.5,383.5C 383.5,383.5 367.5,383.5 351.5,383.5C 351.5,378.167 351.5,372.833 351.5,367.5C 335.5,367.5 319.5,367.5 303.5,367.5C 303.5,362.167 303.5,356.833 303.5,351.5C 298.167,351.5 292.833,351.5 287.5,351.5C 287.5,330.167 287.5,308.833 287.5,287.5C 292.833,287.5 298.167,287.5 303.5,287.5C 303.5,282.167 303.5,276.833 303.5,271.5C 308.833,271.5 314.167,271.5 319.5,271.5C 319.5,266.167 319.5,260.833 319.5,255.5 Z"/></g>
<g><path style="opacity:1" fill="#fefffe" d="M 479.5,255.5 C 506.167,255.5 532.833,255.5 559.5,255.5C 559.5,260.833 559.5,266.167 559.5,271.5C 564.833,271.5 570.167,271.5 575.5,271.5C 575.5,276.833 575.5,282.167 575.5,287.5C 580.833,287.5 586.167,287.5 591.5,287.5C 591.5,298.167 591.5,308.833 591.5,319.5C 580.833,319.5 570.167,319.5 559.5,319.5C 559.5,314.167 559.5,308.833 559.5,303.5C 554.167,303.5 548.833,303.5 543.5,303.5C 543.5,298.167 543.5,292.833 543.5,287.5C 527.5,287.5 511.5,287.5 495.5,287.5C 495.5,292.833 495.5,298.167 495.5,303.5C 490.167,303.5 484.833,303.5 479.5,303.5C 479.5,314.167 479.5,324.833 479.5,335.5C 490.167,335.5 500.833,335.5 511.5,335.5C 511.5,340.833 511.5,346.167 511.5,351.5C 527.5,351.5 543.5,351.5 559.5,351.5C 559.5,356.833 559.5,362.167 559.5,367.5C 570.167,367.5 580.833,367.5 591.5,367.5C 591.5,388.833 591.5,410.167 591.5,431.5C 586.167,431.5 580.833,431.5 575.5,431.5C 575.5,436.833 575.5,442.167 575.5,447.5C 570.167,447.5 564.833,447.5 559.5,447.5C 559.5,452.833 559.5,458.167 559.5,463.5C 532.833,463.5 506.167,463.5 479.5,463.5C 479.5,458.167 479.5,452.833 479.5,447.5C 474.167,447.5 468.833,447.5 463.5,447.5C 463.5,442.167 463.5,436.833 463.5,431.5C 458.167,431.5 452.833,431.5 447.5,431.5C 447.5,420.833 447.5,410.167 447.5,399.5C 458.167,399.5 468.833,399.5 479.5,399.5C 479.5,404.833 479.5,410.167 479.5,415.5C 484.833,415.5 490.167,415.5 495.5,415.5C 495.5,420.833 495.5,426.167 495.5,431.5C 511.5,431.5 527.5,431.5 543.5,431.5C 543.5,426.167 543.5,420.833 543.5,415.5C 548.833,415.5 554.167,415.5 559.5,415.5C 559.5,404.833 559.5,394.167 559.5,383.5C 543.5,383.5 527.5,383.5 511.5,383.5C 511.5,378.167 511.5,372.833 511.5,367.5C 495.5,367.5 479.5,367.5 463.5,367.5C 463.5,362.167 463.5,356.833 463.5,351.5C 458.167,351.5 452.833,351.5 447.5,351.5C 447.5,330.167 447.5,308.833 447.5,287.5C 452.833,287.5 458.167,287.5 463.5,287.5C 463.5,282.167 463.5,276.833 463.5,271.5C 468.833,271.5 474.167,271.5 479.5,271.5C 479.5,266.167 479.5,260.833 479.5,255.5 Z"/></g>
<g><path style="opacity:1" fill="#fefffe" d="M 127.5,367.5 C 138.167,367.5 148.833,367.5 159.5,367.5C 159.5,383.5 159.5,399.5 159.5,415.5C 164.833,415.5 170.167,415.5 175.5,415.5C 175.5,420.833 175.5,426.167 175.5,431.5C 191.5,431.5 207.5,431.5 223.5,431.5C 223.5,426.167 223.5,420.833 223.5,415.5C 228.833,415.5 234.167,415.5 239.5,415.5C 239.5,399.5 239.5,383.5 239.5,367.5C 250.167,367.5 260.833,367.5 271.5,367.5C 271.5,388.833 271.5,410.167 271.5,431.5C 266.167,431.5 260.833,431.5 255.5,431.5C 255.5,436.833 255.5,442.167 255.5,447.5C 250.167,447.5 244.833,447.5 239.5,447.5C 239.5,452.833 239.5,458.167 239.5,463.5C 212.833,463.5 186.167,463.5 159.5,463.5C 159.5,458.167 159.5,452.833 159.5,447.5C 154.167,447.5 148.833,447.5 143.5,447.5C 143.5,442.167 143.5,436.833 143.5,431.5C 138.167,431.5 132.833,431.5 127.5,431.5C 127.5,410.167 127.5,388.833 127.5,367.5 Z"/></g>
</svg>
